<svg width="54" height="48" viewBox="0 0 54 48" fill="none" xmlns="http://www.w3.org/2000/svg">
<path d="M50 24.2995L42.3341 33.4995M29.3 24.2995H50H29.3ZM50 24.2995L42.3341 15.0995L50 24.2995Z" stroke="white" stroke-opacity="0.75" stroke-width="6.49999" stroke-linecap="round" stroke-linejoin="round"/>
<path d="M31.6 12.7996V8.59977C31.6 7.96353 31.4679 7.33421 31.2123 6.7516C30.9566 6.16898 30.5829 5.64574 30.1147 5.21494C29.6465 4.78413 29.094 4.45514 28.4922 4.24875C27.8903 4.04236 27.2522 3.96306 26.6182 4.01587L8.2182 5.54767C7.06832 5.64344 5.99642 6.16786 5.21509 7.01694C4.43376 7.86601 4.00006 8.97771 4 10.1316V38.4676C4.00006 39.6214 4.43376 40.7331 5.21509 41.5822C5.99642 42.4313 7.06832 42.9557 8.2182 43.0515L26.6182 44.5856C27.2524 44.6384 27.8907 44.559 28.4927 44.3525C29.0947 44.146 29.6473 43.8168 30.1155 43.3857C30.5838 42.9547 30.9575 42.4311 31.213 41.8483C31.4685 41.2654 31.6003 40.6358 31.6 39.9994V35.7996" stroke="white" stroke-opacity="0.75" stroke-width="6.49999" stroke-linecap="round" stroke-linejoin="round"/>
</svg>
