<svg width="95" height="95" viewBox="0 0 95 95" fill="none" xmlns="http://www.w3.org/2000/svg">
<path d="M47.5 0C21.2601 0 0 21.2601 0 47.5C0 73.7399 21.2601 95 47.5 95C73.7399 95 95 73.7399 95 47.5C95 21.2601 73.7399 0 47.5 0ZM47.5 18.3871C56.8085 18.3871 64.3548 25.9335 64.3548 35.2419C64.3548 44.5504 56.8085 52.0968 47.5 52.0968C38.1915 52.0968 30.6452 44.5504 30.6452 35.2419C30.6452 25.9335 38.1915 18.3871 47.5 18.3871ZM47.5 84.2742C36.2571 84.2742 26.1825 79.1794 19.4405 71.2117C23.0413 64.4315 30.0897 59.7581 38.3064 59.7581C38.7661 59.7581 39.2258 59.8347 39.6663 59.9688C42.1563 60.7732 44.7611 61.2903 47.5 61.2903C50.2389 61.2903 52.8629 60.7732 55.3337 59.9688C55.7742 59.8347 56.2339 59.7581 56.6935 59.7581C64.9103 59.7581 71.9587 64.4315 75.5595 71.2117C68.8175 79.1794 58.7429 84.2742 47.5 84.2742Z" fill="#86EAC2"/>
</svg>
